<svg xmlns="http://www.w3.org/2000/svg" viewBox="0 0 168 168"><defs><style>.cls-1{fill:#d7606b;fill-rule:evenodd;}.cls-2{fill:#fff;}</style></defs><title>tr</title><g id="Слой_2" data-name="Слой 2"><g id="tr"><path class="cls-1" d="M84 0A84 84 0 1 1 0 84 84 84 0 0 1 84 0z"/><path class="cls-2" d="M105.68 110.2h-.13A29 29 0 0 1 101 112a28.43 28.43 0 0 1-36.55-28.2 28.88 28.88 0 0 1 42.3-25.37l.12.05a1 1 0 0 0 1.24-.63 1 1 0 0 0-.35-1.1 35.26 35.26 0 0 0-12.36-7 36.44 36.44 0 0 0-47.5 33.82A35.9 35.9 0 0 0 106.48 112a1 1 0 0 0 .4-1.1 1 1 0 0 0-1.2-.7z"/><path class="cls-2" d="M94.4 98.44c-1.53 1-2.37.4-1.87-1.43l1.87-6.75a6.25 6.25 0 0 0-1.53-5.62l-4.72-4.5c-1.34-1.27-.94-2.3.9-2.3h6.83a4.94 4.94 0 0 0 4.4-3.22l2.4-7.36c.6-1.8 1.53-1.78 2.1 0l2.3 7.44a5.17 5.17 0 0 0 4.33 3.42l7 .32c1.84.08 2.17 1.12.74 2.3l-5.48 4.56a6 6 0 0 0-1.8 5.48l1.48 6.06c.44 1.83-.44 2.47-2 1.43l-5.53-3.78a5.37 5.37 0 0 0-5.55 0z"/></g></g></svg>