<svg xmlns="http://www.w3.org/2000/svg" viewBox="0 0 168 168"><defs><style>.cls-1{fill:#fff;}.cls-2{fill:#d7606b;}.cls-3{fill:#5285c5;}</style></defs><title>us</title><g id="Слой_2" data-name="Слой 2"><g id="us"><path class="cls-1" d="M86 85.75h82a83.58 83.58 0 0 1-8.18 34.5H8.2A83.44 83.44 0 0 1 0 86h86z"/><path class="cls-2" d="M142.28 23.5H86V0a83.68 83.68 0 0 1 56.28 23.5zM86 85.75h82V84a83.7 83.7 0 0 0-4.1-26H86z"/><path class="cls-1" d="M163.9 58H86V23.5h56.28a84 84 0 0 1 21.6 34.5z"/><path class="cls-2" d="M8.2 120.25h151.6a84.45 84.45 0 0 1-21.1 27.5H29.3a84.45 84.45 0 0 1-21.1-27.5z"/><path class="cls-3" d="M0 85.75V84a83.7 83.7 0 0 1 4.1-26 82.78 82.78 0 0 1 11.07-22.15L24 42.1a1.78 1.78 0 0 1 .67 2L20 58l-1.2 3.6a1.84 1.84 0 0 0 2.84 2L29.6 58l7.32-5.2a1.86 1.86 0 0 1 2.16 0l7.3 5.2 7.94 5.65a1.84 1.84 0 0 0 2.84-2L56 58l-4.66-13.88a1.77 1.77 0 0 1 .67-2l15.23-10.8A1.8 1.8 0 0 0 66.15 28H47.33a1.83 1.83 0 0 1-1.75-1.24l-1.1-3.3L40.68 12A83.63 83.63 0 0 1 84 0h2v86H0a2.1 2.1 0 0 1 0-.25z"/><path class="cls-1" d="M29.6 58l-7.92 5.63a1.84 1.84 0 0 1-2.84-2L20 58l4.62-13.88a1.78 1.78 0 0 0-.67-2l-8.82-6.25A80.37 80.37 0 0 1 21.36 28h7.3a1.85 1.85 0 0 0 1.77-1.24l1.1-3.3 2.27-6.85a81.72 81.72 0 0 1 6.87-4.6l3.8 11.5 1.1 3.3a1.83 1.83 0 0 0 1.76 1.2h18.82a1.8 1.8 0 0 1 1.08 3.27L52 42.1a1.77 1.77 0 0 0-.67 2L56 58l1.2 3.63a1.84 1.84 0 0 1-2.83 2L46.4 58l-7.32-5.2a1.86 1.86 0 0 0-2.16 0z"/><path class="cls-3" d="M31.52 23.5l-1.1 3.3a1.85 1.85 0 0 1-1.75 1.2h-7.3c1.38-1.57 2.84-3.08 4.35-4.54a82.6 82.6 0 0 1 8.08-6.85z"/><path class="cls-1" d="M29.3 147.75h109.4a84 84 0 0 1-109.4 0z"/></g></g></svg>