<svg xmlns="http://www.w3.org/2000/svg" viewBox="0 0 140 80"><title>Ресурс 29</title><g id="Слой_2" data-name="Слой 2"><g id="Контент"><rect width="140" height="80" rx="2" ry="2" style="fill:#fff"/><g id="g3110"><path id="path2997" d="M101.58,34.87a20.1,20.1,0,1,1-20.1-19.93,20,20,0,0,1,20.1,19.93Z" style="fill:#df9b2f"/><path id="path2995" d="M76.78,34.87a20.1,20.1,0,1,1-20.1-19.93,20,20,0,0,1,20.1,19.93Z" style="fill:#c50120"/><path id="path2999" d="M69.08,19.19a19.83,19.83,0,0,0,0,31.38,19.83,19.83,0,0,0,0-31.38Z" style="fill:#dc5f17"/></g><g id="g3081"><path id="path3006" d="M41.05,64.66H39.91V59.39H41V60a3.67,3.67,0,0,1,1.57-.77,2.47,2.47,0,0,1,1.81,1,2.11,2.11,0,0,1,1.79-1,2,2,0,0,1,2.1,1.66v3.72H47.2V61.36a1,1,0,0,0-1.19-1,1.22,1.22,0,0,0-1.34,1v3.28H43.53v-3.3a1.15,1.15,0,0,0-1.14-1c-1.34,0-1.36,1.06-1.36,1.06Z"/><path id="path3008" d="M75.74,59.26a3.67,3.67,0,0,0-1.57.77v-.64H73.06v5.27H74.2l0-3.3s0-1.06,1.36-1.06a1.13,1.13,0,0,1,.59.15h0l.37-1A2.07,2.07,0,0,0,75.74,59.26Z"/><path id="path3013" d="M91.81,59.26a3.67,3.67,0,0,0-1.57.77v-.64H89.12v5.27h1.14l0-3.3s0-1.06,1.36-1.06a1.13,1.13,0,0,1,.59.15h0l.37-1a2.07,2.07,0,0,0-.77-.16Z"/><path id="path3015" d="M52,59.24A2.7,2.7,0,0,0,49.37,62,2.78,2.78,0,0,0,52,64.83a3,3,0,0,0,1.74-.7v.54h1.12V59.39H53.77v.66A2.65,2.65,0,0,0,52,59.24Zm.22,1.07a1.76,1.76,0,1,1-1.66,1.76A1.71,1.71,0,0,1,52.21,60.31Z"/><path id="path3020" d="M84.73,59.24A2.7,2.7,0,0,0,82.11,62a2.78,2.78,0,0,0,2.66,2.8,3,3,0,0,0,1.74-.7v.54h1.12V59.39H86.51v.66a2.65,2.65,0,0,0-1.78-.82Zm.22,1.07a1.76,1.76,0,1,1-1.66,1.76A1.71,1.71,0,0,1,84.95,60.31Z"/><path id="path3022" d="M95.51,59.24A2.7,2.7,0,0,0,92.9,62a2.78,2.78,0,0,0,2.66,2.8,3,3,0,0,0,1.74-.7v.54h1.12V57.31H97.29v2.75a2.65,2.65,0,0,0-1.78-.82Zm.22,1.07a1.76,1.76,0,1,1-1.66,1.76A1.71,1.71,0,0,1,95.73,60.31Z"/><path id="path3024" d="M58.32,64.84a4.65,4.65,0,0,1-2.24-.71l.49-.75a5.34,5.34,0,0,0,1.74.46c.47,0,1.27-.15,1.27-.62s-1.33-.64-1.33-.64-2,0-2-1.66c0-1,1-1.68,2.28-1.68a7.27,7.27,0,0,1,2.12.64l-.56.86a7,7,0,0,0-1.63-.44c-.48,0-1.05.21-1.05.62,0,1.12,3.33-.09,3.33,2.17,0,1.48-1.36,1.75-2.44,1.75Z"/><path id="path3026" d="M62.61,57.87V59.4h-1v1.11h1v2.65a1.71,1.71,0,0,0,1.86,1.79,6.57,6.57,0,0,0,1.59-.39l-.45-1.15a1.53,1.53,0,0,1-.89.34c-.9,0-.87-.59-.87-.59V60.51H65.7V59.4H63.84V57.87Z"/><path id="path3034" d="M69.36,59.3a2.81,2.81,0,0,0,.11,5.62,5.17,5.17,0,0,0,2.07-.75l-.52-.9a3.32,3.32,0,0,1-1.55.58,1.51,1.51,0,0,1-1.55-1.41h3.89S72.11,59.3,69.36,59.3Zm-.17,1h.14a1.27,1.27,0,0,1,1.36,1.28H67.93A1.23,1.23,0,0,1,69.2,60.34Z"/><path id="path3037" d="M80.94,63.26l.52,1a3.68,3.68,0,0,1-1.76.53,2.84,2.84,0,0,1-3-2.79,2.66,2.66,0,0,1,2.85-2.75,4,4,0,0,1,1.95.59l-.59,1a1.71,1.71,0,0,0-3,1.17,1.63,1.63,0,0,0,1.6,1.74,2.4,2.4,0,0,0,1.39-.56Z"/></g></g></g></svg>